<?xml version="1.0" encoding="utf-8"?>
<!-- Generator: Adobe Illustrator 25.0.0, SVG Export Plug-In . SVG Version: 6.00 Build 0)  -->
<svg version="1.1" xmlns="http://www.w3.org/2000/svg" xmlns:xlink="http://www.w3.org/1999/xlink" x="0px" y="0px"
	 viewBox="0 0 300 300" style="enable-background:new 0 0 300 300;" xml:space="preserve">
<style type="text/css">
	.st0{fill:#FFFFFF;}
	.st1{fill:#020203;}
	.st2{clip-path:url(#SVGID_2_);fill:#020203;}
	.st3{clip-path:url(#SVGID_4_);fill:#FFFFFD;}
	.st4{fill:#FFFFFD;}
	.st5{fill:none;stroke:#414519;stroke-width:2;stroke-miterlimit:10;}
	.st6{fill:#41451C;}
</style>
<g id="Camada_1">
	<circle class="st0" cx="150" cy="150" r="118.41"/>
	<g>
		<g>
			<circle class="st1" cx="149.29" cy="124.54" r="39.58"/>
			<g>
				<defs>
					
						<ellipse id="SVGID_1_" transform="matrix(0.7071 -0.7071 0.7071 0.7071 -44.3385 142.0432)" cx="149.29" cy="124.54" rx="61.69" ry="61.69"/>
				</defs>
				<clipPath id="SVGID_2_">
					<use xlink:href="#SVGID_1_"  style="overflow:visible;"/>
				</clipPath>
				<path class="st2" d="M142.64,106.81c0-0.4,0.77-0.39,0.76,0.01l0.04,25.33c-0.01,1.35,1.77,1.36,1.77,0.01l1.74-25.32
					c0-0.41,0.76-0.4,0.76,0l0.68,25.34c0,0.68,0.45,1.02,0.91,1.02c0.47,0.01,0.93-0.33,0.93-1.01l0.93-25.33
					c0-0.4,0.77-0.39,0.77,0.01l1.49,25.33c-0.01,1.36,1.76,1.37,1.77,0.01l0.29-25.33c0-0.41,0.77-0.4,0.77,0
					c0,0,2.04,21.61,2.42,25.32c0.47,4.52,0.62,8.96-1.33,13.16c-1.09,2.31-2.81,4.26-5.35,5.51c0.1,14.72,0.51,54.84,0.85,65.65
					c0.05,1.38-1.08,2.5-2.46,2.49l-3.03-0.02c-1.38,0-2.49-1.14-2.43-2.51c0.46-10.8,1.27-50.92,1.52-65.64
					c-2.53-1.28-4.23-3.24-5.29-5.56c-1.92-4.22-1.72-8.66-1.2-13.18C140.38,128.4,142.64,106.81,142.64,106.81z"/>
			</g>
			<g>
				<defs>
					<circle id="SVGID_3_" cx="149.29" cy="124.54" r="39.48"/>
				</defs>
				<clipPath id="SVGID_4_">
					<use xlink:href="#SVGID_3_"  style="overflow:visible;"/>
				</clipPath>
				<path class="st3" d="M144.03,104.05c0-0.32,0.62-0.32,0.61,0.01l0.03,20.4c-0.01,1.09,1.42,1.1,1.43,0l1.4-20.39
					c0-0.33,0.62-0.32,0.61,0l0.54,20.4c0,0.55,0.36,0.82,0.73,0.82c0.38,0.01,0.75-0.26,0.75-0.81l0.75-20.4
					c0-0.32,0.62-0.32,0.62,0.01l1.2,20.4c-0.01,1.09,1.42,1.1,1.43,0.01l0.23-20.39c0-0.33,0.62-0.33,0.62,0
					c0,0,1.64,17.4,1.95,20.39c0.38,3.64,0.5,7.21-1.07,10.6c-0.88,1.86-2.26,3.43-4.3,4.44c0.08,11.85,0.41,44.17,0.69,52.87
					c0.04,1.11-0.87,2.02-1.98,2.01l-2.44-0.02c-1.11,0-2.01-0.92-1.96-2.02c0.37-8.7,1.02-41.01,1.22-52.86
					c-2.04-1.03-3.41-2.61-4.26-4.48c-1.55-3.4-1.38-6.98-0.97-10.61C142.22,121.44,144.03,104.05,144.03,104.05z"/>
			</g>
			<circle class="st4" cx="131.55" cy="101.74" r="2.62"/>
			<path class="st4" d="M151.91,94.85c0-1.45-1.17-2.62-2.62-2.62c-1.45,0-2.62,1.17-2.62,2.62c0,1.45,1.17,2.62,2.62,2.62
				C150.74,97.47,151.91,96.3,151.91,94.85z"/>
			<path class="st4" d="M119.54,111.81c0-1.45,1.17-2.62,2.62-2.62c1.45,0,2.62,1.17,2.62,2.62c0,1.45-1.17,2.62-2.62,2.62
				C120.71,114.42,119.54,113.25,119.54,111.81z"/>
			<path class="st4" d="M116.92,124.48c0-1.45,1.17-2.62,2.62-2.62c1.45,0,2.62,1.17,2.62,2.62s-1.17,2.62-2.62,2.62
				C118.09,127.1,116.92,125.92,116.92,124.48z"/>
			<path class="st4" d="M119.54,137.15c0-1.45,1.17-2.62,2.62-2.62c1.45,0,2.62,1.17,2.62,2.62c0,1.45-1.17,2.62-2.62,2.62
				C120.71,139.77,119.54,138.6,119.54,137.15z"/>
			<path class="st4" d="M164.38,101.74c0-1.45,1.17-2.62,2.62-2.62c1.45,0,2.62,1.17,2.62,2.62s-1.17,2.62-2.62,2.62
				C165.55,104.36,164.38,103.18,164.38,101.74z"/>
			<circle class="st4" cx="176.39" cy="111.81" r="2.62"/>
			<circle class="st4" cx="179.01" cy="124.48" r="2.62"/>
			<circle class="st4" cx="176.39" cy="137.15" r="2.62"/>
			
				<ellipse transform="matrix(0.7071 -0.7071 0.7071 0.7071 -44.3385 142.0432)" class="st5" cx="149.29" cy="124.54" rx="61.69" ry="61.69"/>
		</g>
		<g>
			<path class="st6" d="M79.7,227.35c-2.43-1.29-4.34-3.09-5.72-5.39c-1.39-2.3-2.08-4.91-2.08-7.82c0-2.91,0.69-5.52,2.08-7.82
				c1.39-2.3,3.29-4.1,5.72-5.39c2.43-1.29,5.17-1.93,8.22-1.93c2.66,0,5.06,0.47,7.2,1.41c2.14,0.94,3.91,2.3,5.33,4.08l-5.24,4.74
				c-1.89-2.27-4.18-3.41-6.87-3.41c-1.58,0-2.99,0.35-4.22,1.04c-1.23,0.69-2.19,1.67-2.87,2.94c-0.68,1.26-1.02,2.71-1.02,4.35
				c0,1.64,0.34,3.09,1.02,4.35c0.68,1.26,1.64,2.24,2.87,2.93c1.23,0.69,2.64,1.04,4.22,1.04c2.69,0,4.98-1.14,6.87-3.41l5.24,4.75
				c-1.42,1.78-3.19,3.14-5.33,4.08c-2.14,0.94-4.54,1.42-7.2,1.42C84.87,229.29,82.13,228.64,79.7,227.35z"/>
			<path class="st6" d="M107.82,227.58c-1.94-1-3.46-2.39-4.56-4.16c-1.1-1.77-1.64-3.79-1.64-6.03c0-2.22,0.55-4.22,1.64-5.99
				c1.1-1.77,2.61-3.16,4.54-4.14c1.93-0.98,4.11-1.48,6.56-1.48c2.44,0,4.63,0.49,6.58,1.48c1.94,0.99,3.45,2.36,4.54,4.12
				c1.08,1.76,1.62,3.77,1.62,6.01s-0.54,4.26-1.62,6.03c-1.08,1.78-2.59,3.16-4.54,4.16c-1.94,1-4.13,1.5-6.58,1.5
				C111.94,229.08,109.76,228.58,107.82,227.58z M117.77,221.36c0.89-0.96,1.33-2.28,1.33-3.97c0-1.66-0.44-2.97-1.33-3.91
				c-0.89-0.94-2.03-1.41-3.41-1.41c-1.39,0-2.53,0.47-3.41,1.41c-0.89,0.94-1.33,2.25-1.33,3.91c0,1.69,0.44,3.02,1.33,3.97
				c0.89,0.96,2.02,1.44,3.41,1.44C115.74,222.79,116.88,222.31,117.77,221.36z"/>
			<path class="st6" d="M135.54,227.58c-1.94-1-3.46-2.39-4.56-4.16c-1.1-1.77-1.64-3.79-1.64-6.03c0-2.22,0.55-4.22,1.64-5.99
				c1.1-1.77,2.61-3.16,4.54-4.14c1.93-0.98,4.11-1.48,6.56-1.48c2.44,0,4.63,0.49,6.58,1.48c1.94,0.99,3.45,2.36,4.54,4.12
				c1.08,1.76,1.62,3.77,1.62,6.01s-0.54,4.26-1.62,6.03c-1.08,1.78-2.59,3.16-4.54,4.16c-1.94,1-4.13,1.5-6.58,1.5
				C139.66,229.08,137.48,228.58,135.54,227.58z M145.48,221.36c0.89-0.96,1.33-2.28,1.33-3.97c0-1.66-0.44-2.97-1.33-3.91
				c-0.89-0.94-2.02-1.41-3.41-1.41c-1.39,0-2.53,0.47-3.41,1.41c-0.89,0.94-1.33,2.25-1.33,3.91c0,1.69,0.44,3.02,1.33,3.97
				c0.89,0.96,2.02,1.44,3.41,1.44C143.46,222.79,144.6,222.31,145.48,221.36z"/>
			<path class="st6" d="M168.71,220.79l-2.33,2.37v5.54h-7.91v-30.88h7.91v16.19l8.07-7.87h9.36l-9.36,9.66l10.16,12.9h-9.57
				L168.71,220.79z"/>
			<path class="st6" d="M195.64,206.98h5.37v5.91h-5.16v15.82h-7.91v-15.82h-3.29v-5.91h3.29v-0.58c0-2.75,0.83-4.92,2.48-6.53
				c1.65-1.61,3.96-2.41,6.93-2.41c1,0,1.97,0.1,2.91,0.29s1.72,0.49,2.33,0.87l-1.96,5.58c-0.78-0.44-1.57-0.67-2.37-0.67
				c-0.83,0-1.48,0.25-1.94,0.75c-0.46,0.5-0.69,1.24-0.69,2.21V206.98z"/>
			<path class="st6" d="M228.1,206.14l-9.74,23.48c-1.14,2.77-2.53,4.72-4.16,5.85c-1.64,1.12-3.64,1.68-5.99,1.68
				c-1.19,0-2.39-0.19-3.6-0.56s-2.19-0.87-2.93-1.48l2.75-5.54c0.44,0.42,0.98,0.74,1.6,0.98c0.63,0.23,1.26,0.35,1.89,0.35
				c0.75,0,1.37-0.15,1.85-0.46c0.48-0.3,0.89-0.79,1.23-1.46l-9.66-22.85h8.12l5.54,13.78l5.58-13.78H228.1z"/>
		</g>
	</g>
	
		<text transform="matrix(1 0 0 1 -145.2446 212.877)" class="st6" style="font-family:'Montserrat-ExtraBold'; font-size:29.7707px;">Cookfy</text>
</g>
<g id="Camada_2">
</g>
</svg>
